<?xml version="1.0" encoding="UTF-8"?>
<svg xmlns="http://www.w3.org/2000/svg" xmlns:xlink="http://www.w3.org/1999/xlink" width="30px" height="30px" viewBox="0 0 30 30" version="1.1">
<g id="surface1">
<path style=" stroke:none;fill-rule:nonzero;fill:rgb(0%,0%,0%);fill-opacity:1;" d="M 23.441406 0 C 23.40625 0 23.375 0 23.34375 0.00390625 C 22.832031 0.00390625 22.414062 0.417969 22.414062 0.929688 L 22.414062 25.65625 L 9.898438 4.894531 L 7.253906 0.445312 C 7.085938 0.167969 6.785156 0 6.457031 0 C 6.457031 0 5.636719 0.0625 5.636719 0.890625 L 5.636719 29 C 5.636719 29.511719 6.054688 29.925781 6.566406 29.925781 C 7.078125 29.925781 7.492188 29.511719 7.492188 29 L 7.492188 4.363281 L 19.960938 25.101562 L 22.636719 29.554688 C 22.808594 29.832031 23.109375 30 23.433594 30 L 23.675781 30 C 24.078125 29.890625 24.359375 29.527344 24.363281 29.109375 L 24.363281 0.929688 C 24.363281 0.417969 23.953125 0.00390625 23.441406 0 Z M 23.441406 0 "/>
</g>
</svg>
